<svg width="512" height="512" viewBox="0 0 512 512" fill="none" xmlns="http://www.w3.org/2000/svg">
<g clip-path="url(#clip0_2_2)">
<path d="M201.75 128.65C213.183 128.65 222.75 129.933 230.45 132.5C238.15 135.067 244.45 138.567 249.35 143C254.25 147.2 258.1 152.1 260.9 157.7C263.7 163.067 266.033 168.667 267.9 174.5L223.8 194.8C221.233 187.333 218.433 181.733 215.4 178C212.6 174.033 208.05 172.05 201.75 172.05C194.983 172.05 189.617 174.033 185.65 178C181.683 181.733 179.7 186.283 179.7 191.65C179.7 198.417 181.217 203.55 184.25 207.05C187.283 210.55 191.25 214.05 196.15 217.55L226.95 240.3C236.05 247.067 243.167 255.117 248.3 264.45C253.667 273.783 256.35 284.983 256.35 298.05C256.35 310.417 253.783 321.267 248.65 330.6C243.75 339.7 236.983 347.283 228.35 353.35C219.95 359.417 210.267 363.967 199.3 367C188.333 370.033 176.9 371.55 165 371.55C147.967 371.55 133.15 369.683 120.55 365.95C107.95 361.983 96.75 357.317 86.95 351.95L111.45 308.55C120.083 313.683 128.717 318.233 137.35 322.2C145.983 325.933 154.85 327.8 163.95 327.8C173.517 327.8 181.1 325.817 186.7 321.85C192.533 317.65 195.45 311.233 195.45 302.6C195.45 295.833 193.817 290.35 190.55 286.15C187.283 281.717 182.967 277.517 177.6 273.55L152.75 255.35C147.15 251.15 142.25 246.95 138.05 242.75C133.85 238.55 130.35 234 127.55 229.1C124.75 224.2 122.533 218.833 120.9 213C119.5 207.167 118.8 200.633 118.8 193.4C118.8 183.133 120.9 174.033 125.1 166.1C129.3 157.933 135.133 151.167 142.6 145.8C150.067 140.2 158.817 136 168.85 133.2C178.883 130.167 189.85 128.65 201.75 128.65Z" fill="#171717"/>
<path d="M320.45 215.05C336.55 219.483 358.25 223.1 385.55 225.9C375.05 264.867 366.883 299.867 361.05 330.9C355.217 361.7 351.95 382.933 351.25 394.6L350.2 411.75C332.467 406.383 315.55 396 299.45 380.6C300.85 354 303.3 326.933 306.8 299.4C310.3 271.633 313.45 250.633 316.25 236.4L320.45 215.05Z" fill="#171717"/>
<path d="M364.6 106.5C375.1 106.5 382.917 109.183 388.05 114.55C393.183 119.683 395.75 126.917 395.75 136.25C395.75 145.583 392.6 153.633 386.3 160.4C380 167.167 371.25 170.55 360.05 170.55C349.55 170.55 341.733 167.867 336.6 162.5C331.7 156.9 329.25 149.667 329.25 140.8C329.25 131.467 332.283 123.417 338.35 116.65C344.65 109.883 353.4 106.5 364.6 106.5Z" fill="#A3A3A3"/>
</g>
<defs>
<clipPath id="clip0_2_2">
<rect width="512" height="512" fill="white"/>
</clipPath>
</defs>
</svg>
