<svg width="512" height="512" viewBox="0 0 512 512" fill="none" xmlns="http://www.w3.org/2000/svg">
<rect x="56" y="56" width="400" height="400" rx="72" fill="#2563EB"/>
<g filter="url(#filter0_d_1_2)">
<path d="M160.926 327.074H147.963V288.185H186.852V301.148H199.815V314.111H238.704V301.148H251.667V288.185H238.704V275.222H173.889V262.259H160.926V249.296H147.963V184.481H160.926V171.519H173.889V158.556H264.63V171.519H277.593V184.481H290.556V223.37H251.667V210.407H238.704V197.444H199.815V210.407H186.852V223.37H199.815V236.333H264.63V249.296H277.593V262.259H290.556V327.074H277.593V340.037H264.63V353H173.889V340.037H160.926V327.074ZM323.469 158.556H362.358V197.444H323.469V158.556ZM323.469 223.37H362.358V353H323.469V223.37Z" fill="white"/>
</g>
<defs>
<filter id="filter0_d_1_2" x="143.963" y="158.556" width="222.395" height="202.444" filterUnits="userSpaceOnUse" color-interpolation-filters="sRGB">
<feFlood flood-opacity="0" result="BackgroundImageFix"/>
<feColorMatrix in="SourceAlpha" type="matrix" values="0 0 0 0 0 0 0 0 0 0 0 0 0 0 0 0 0 0 127 0" result="hardAlpha"/>
<feOffset dy="4"/>
<feGaussianBlur stdDeviation="2"/>
<feComposite in2="hardAlpha" operator="out"/>
<feColorMatrix type="matrix" values="0 0 0 0 0 0 0 0 0 0 0 0 0 0 0 0 0 0 0.25 0"/>
<feBlend mode="normal" in2="BackgroundImageFix" result="effect1_dropShadow_1_2"/>
<feBlend mode="normal" in="SourceGraphic" in2="effect1_dropShadow_1_2" result="shape"/>
</filter>
</defs>
</svg>
