<svg width="512" height="512" viewBox="0 0 512 512" fill="none" xmlns="http://www.w3.org/2000/svg">
<path d="M269.79 190.062C268.464 177.657 262.877 167.998 253.028 161.085C243.275 154.172 230.585 150.716 214.96 150.716C203.975 150.716 194.553 152.373 186.693 155.688C178.833 159.002 172.82 163.5 168.653 169.182C164.487 174.864 162.356 181.35 162.261 188.642C162.261 194.703 163.634 199.958 166.381 204.409C169.222 208.86 173.057 212.648 177.886 215.773C182.716 218.803 188.066 221.36 193.938 223.443C199.809 225.527 205.727 227.278 211.693 228.699L238.966 235.517C249.951 238.074 260.509 241.53 270.642 245.886C280.869 250.242 290.008 255.735 298.057 262.364C306.201 268.992 312.64 276.994 317.375 286.369C322.11 295.744 324.477 306.729 324.477 319.324C324.477 336.369 320.121 351.379 311.409 364.352C302.697 377.231 290.102 387.316 273.625 394.608C257.242 401.805 237.403 405.403 214.108 405.403C191.475 405.403 171.826 401.9 155.159 394.892C138.587 387.884 125.614 377.657 116.239 364.21C106.958 350.763 101.939 334.381 101.182 315.062H153.028C153.786 325.195 156.911 333.623 162.403 340.347C167.896 347.07 175.045 352.089 183.852 355.403C192.754 358.718 202.697 360.375 213.682 360.375C225.14 360.375 235.178 358.67 243.795 355.261C252.508 351.758 259.326 346.928 264.25 340.773C269.174 334.523 271.684 327.231 271.778 318.898C271.684 311.322 269.458 305.072 265.102 300.148C260.746 295.129 254.638 290.962 246.778 287.648C239.013 284.239 229.922 281.208 219.506 278.557L186.409 270.034C162.451 263.879 143.511 254.551 129.591 242.051C115.765 229.456 108.852 212.742 108.852 191.909C108.852 174.769 113.492 159.759 122.773 146.881C132.148 134.002 144.884 124.011 160.983 116.909C177.081 109.712 195.311 106.114 215.67 106.114C236.314 106.114 254.402 109.712 269.932 116.909C285.557 124.011 297.82 133.907 306.722 146.597C315.623 159.191 320.216 173.68 320.5 190.062H269.79Z" fill="#171717"/>
<path d="M259.441 204.43C258.281 193.575 253.392 185.123 244.775 179.075C236.24 173.026 225.137 170.001 211.465 170.001C201.853 170.001 193.609 171.451 186.732 174.352C179.854 177.252 174.593 181.187 170.947 186.159C167.301 191.131 165.437 196.807 165.354 203.187C165.354 208.49 166.555 213.089 168.958 216.983C171.444 220.877 174.8 224.192 179.026 226.926C183.251 229.578 187.933 231.815 193.07 233.638C198.208 235.461 203.386 236.994 208.607 238.237L232.47 244.202C242.082 246.44 251.321 249.464 260.187 253.276C269.136 257.087 277.132 261.893 284.175 267.693C291.301 273.493 296.935 280.495 301.078 288.698C305.221 296.901 307.293 306.513 307.293 317.533C307.293 332.448 303.481 345.581 295.858 356.933C288.235 368.202 277.214 377.027 262.797 383.407C248.462 389.704 231.103 392.853 210.719 392.853C190.916 392.853 173.723 389.787 159.139 383.656C144.639 377.524 133.287 368.575 125.084 356.809C116.964 345.043 112.572 330.708 111.909 313.805H157.275C157.938 322.671 160.672 330.045 165.478 335.928C170.284 341.811 176.54 346.203 184.246 349.103C192.035 352.003 200.735 353.453 210.347 353.453C220.373 353.453 229.156 351.962 236.696 348.979C244.319 345.913 250.285 341.687 254.594 336.301C258.902 330.832 261.098 324.452 261.181 317.161C261.098 310.532 259.151 305.063 255.339 300.754C251.528 296.363 246.183 292.717 239.306 289.817C232.512 286.834 224.557 284.182 215.442 281.862L186.483 274.405C165.519 269.019 148.947 260.857 136.767 249.92C124.67 238.899 118.621 224.275 118.621 206.045C118.621 191.048 122.681 177.915 130.801 166.646C139.004 155.377 150.149 146.635 164.235 140.42C178.321 134.123 194.272 130.974 212.087 130.974C230.15 130.974 245.976 134.123 259.565 140.42C273.237 146.635 283.968 155.294 291.756 166.397C299.545 177.417 303.564 190.095 303.812 204.43H259.441Z" fill="#D4D4D4"/>
<path d="M404.392 110.091V401H351.693V110.091H404.392Z" fill="#171717"/>
<path d="M394.218 146.455V401H348.107V146.455H394.218Z" fill="#D4D4D4"/>
</svg>
