<svg width="512" height="512" viewBox="0 0 512 512" fill="none" xmlns="http://www.w3.org/2000/svg">
<g clip-path="url(#clip0_2_2)">
<path d="M193.8 130.6C203.4 130.6 212.6 131.4 221.4 133C230.467 134.6 238.867 136.6 246.6 139C254.333 141.4 261.267 144.2 267.4 147.4C273.8 150.333 279.267 153.4 283.8 156.6L260.6 200.6C257.4 199 253.533 197 249 194.6C244.467 191.933 239.533 189.4 234.2 187C229.133 184.6 223.8 182.6 218.2 181C212.867 179.4 207.667 178.6 202.6 178.6C193.267 178.6 186.333 180.6 181.8 184.6C177.267 188.333 175 193.133 175 199C175.267 203.533 176.333 207.533 178.2 211C180.067 214.467 182.867 217.933 186.6 221.4C190.333 224.6 195.133 227.8 201 231C206.867 234.2 214.067 237.533 222.6 241C233.267 245.533 242.6 250.2 250.6 255C258.6 259.8 265.133 265.267 270.2 271.4C275.533 277.533 279.533 284.467 282.2 292.2C284.867 299.933 286.2 308.867 286.2 319C286.2 331.267 283.933 342.867 279.4 353.8C275.133 364.467 268.867 373.8 260.6 381.8C252.333 389.8 242.333 396.067 230.6 400.6C218.867 405.133 205.667 407.4 191 407.4C180.6 407.4 170.6 406.467 161 404.6C151.667 402.733 143 400.333 135 397.4C127 394.467 119.667 391.4 113 388.2C106.333 384.733 100.6 381.533 95.8 378.6L117.4 331.4C119.267 332.733 122.733 335 127.8 338.2C132.867 341.133 138.6 344.2 145 347.4C151.4 350.333 157.933 353 164.6 355.4C171.267 357.8 177.267 359 182.6 359C193.8 359 201.933 356.467 207 351.4C212.333 346.067 215 338.6 215 329C215 319.4 211.667 312.2 205 307.4C198.6 302.333 189.4 297.4 177.4 292.6C165.667 287.8 155.267 282.733 146.2 277.4C137.133 272.067 129.4 266.067 123 259.4C116.867 252.733 112.067 245.267 108.6 237C105.4 228.733 103.8 219.133 103.8 208.2C103.8 196.2 106.2 185.533 111 176.2C116.067 166.6 122.733 158.467 131 151.8C139.267 144.867 148.733 139.667 159.4 136.2C170.333 132.467 181.8 130.6 193.8 130.6Z" fill="#171717"/>
<path d="M312.8 221.2H378.8V492H312.8V221.2Z" fill="#171717"/>
<path d="M341.8 138.4C353 138.4 361.533 141.733 367.4 148.4C373.533 155.067 376.6 163.467 376.6 173.6C376.6 183.733 373.533 192.4 367.4 199.6C361.533 206.533 352.733 210 341 210C329.8 210 321.133 206.533 315 199.6C308.867 192.667 305.8 184.533 305.8 175.2C305.8 164.8 308.867 156.133 315 149.2C321.133 142 330.067 138.4 341.8 138.4Z" fill="#A3A3A3"/>
</g>
<defs>
<clipPath id="clip0_2_2">
<rect width="512" height="512" fill="white"/>
</clipPath>
</defs>
</svg>
